<?xml version="1.0" encoding="UTF-8" standalone="no"?>
<!-- Created with Inkscape (http://www.inkscape.org/) -->

<svg
   xmlns:dc="http://purl.org/dc/elements/1.1/"
   xmlns:cc="http://creativecommons.org/ns#"
   xmlns:rdf="http://www.w3.org/1999/02/22-rdf-syntax-ns#"
   xmlns:svg="http://www.w3.org/2000/svg"
   xmlns="http://www.w3.org/2000/svg"
   xmlns:sodipodi="http://sodipodi.sourceforge.net/DTD/sodipodi-0.dtd"
   xmlns:inkscape="http://www.inkscape.org/namespaces/inkscape"
   width="3.9497001mm"
   height="10.569222mm"
   viewBox="0 0 3.9497001 10.569222"
   version="1.1"
   id="svg2812"
   inkscape:version="0.92.3 (2405546, 2018-03-11)"
   sodipodi:docname="flat.svg">
  <defs
     id="defs2806" />
  <sodipodi:namedview
     id="base"
     pagecolor="#ffffff"
     bordercolor="#666666"
     borderopacity="1.0"
     inkscape:pageopacity="0.0"
     inkscape:pageshadow="2"
     inkscape:zoom="1.979899"
     inkscape:cx="-60.787665"
     inkscape:cy="-39.73941"
     inkscape:document-units="mm"
     inkscape:current-layer="layer1"
     showgrid="false"
     inkscape:window-width="1920"
     inkscape:window-height="1007"
     inkscape:window-x="0"
     inkscape:window-y="39"
     inkscape:window-maximized="1" />
  <metadata
     id="metadata2809">
    <rdf:RDF>
      <cc:Work
         rdf:about="">
        <dc:format>image/svg+xml</dc:format>
        <dc:type
           rdf:resource="http://purl.org/dc/dcmitype/StillImage" />
        <dc:title></dc:title>
      </cc:Work>
    </rdf:RDF>
  </metadata>
  <g
     inkscape:label="Layer 1"
     inkscape:groupmode="layer"
     id="layer1"
     transform="translate(111.46416,-18.45776)">
    <path
       d="m -111.14384,28.631871 v -4.198056 c 0.3048,-0.162277 0.99519,-0.504472 1.40759,-0.504472 0.5408,0 1.02093,0.430389 1.02093,1.107722 0,1.947334 -1.87466,3.249084 -2.42852,3.594806 z m 3.62938,-3.672417 c 0,-0.659694 -0.42016,-2.021416 -1.70145,-2.021416 -1.10419,0 -1.68028,0.536222 -1.92793,0.85725 V 18.61651 c 0,-0.08819 -0.0716,-0.15875 -0.16016,-0.15875 -0.0882,0 -0.16016,0.07056 -0.16016,0.15875 v 10.248194 c 0,0.09172 0.072,0.162278 0.16016,0.162278 0.0127,0 0.0247,-0.0035 0.0363,-0.0071 0.53657,-0.06703 3.7532,-1.823861 3.7532,-4.060472"
       style="fill:#000000;fill-opacity:1;fill-rule:nonzero;stroke:none;stroke-width:0.03527778"
       id="path84"
       inkscape:connector-curvature="0" />
  </g>
</svg>
