<?xml version="1.0" encoding="UTF-8" standalone="no"?>
<svg
   xmlns:dc="http://purl.org/dc/elements/1.1/"
   xmlns:cc="http://creativecommons.org/ns#"
   xmlns:rdf="http://www.w3.org/1999/02/22-rdf-syntax-ns#"
   xmlns:svg="http://www.w3.org/2000/svg"
   xmlns="http://www.w3.org/2000/svg"
   id="svg2"
   height="165.69299"
   width="58.321701"
   version="1.1">
  <metadata
     id="metadata14">
    <rdf:RDF>
      <cc:Work
         rdf:about="">
        <dc:format>image/svg+xml</dc:format>
        <dc:type
           rdf:resource="http://purl.org/dc/dcmitype/StillImage" />
        <dc:title></dc:title>
      </cc:Work>
    </rdf:RDF>
  </metadata>
  <defs
     id="defs4" />
  <path
     style="fill:#000000;stroke:none"
     id="path2847"
     d="m 33.2027,91.524 c -2.589,0.845 -4.7286,2.271 -6.419,4.279 -1.6906,2.007 -2.7207,4.2 -3.0905,6.577 -0.3698,2.377 -0.066,4.728 0.9113,7.052 0.9773,2.325 2.8131,4.2 5.5072,5.627 0.634,0 1.03,0.264 1.189,0.792 0.158,0.528 -0.08,0.792 -0.713,0.792 -2.589,-0.528 -4.8606,-1.611 -6.8152,-3.248 -3.6452,-3.012 -5.6526,-6.894 -6.0224,-11.649 -0.2113,-2.377 0.0132,-4.675 0.6736,-6.894 0.6603,-2.219 1.5716,-4.253 2.7338,-6.102 1.4263,-1.954 3.1168,-3.645 5.0715,-5.071 0.1056,-0.106 0.4094,-0.343 0.9112,-0.713 0.5019,-0.37 0.9905,-0.713 1.466,-1.03 0.4755,-0.317 1.1885,-0.819 2.1395,-1.506 L 27.8138,66.325 c -2.5886,2.166 -5.1507,4.556 -7.6864,7.171 -2.5358,2.615 -4.8338,5.376 -6.8941,8.281 -2.0602,2.906 -3.7111,5.983 -4.9526,9.232 -1.2414,3.249 -1.8621,6.669 -1.8621,10.262 0,3.328 0.6999,6.458 2.0999,9.39 1.3999,2.932 3.2621,5.481 5.5865,7.646 2.3244,2.166 5.0054,3.87 8.043,5.112 3.0376,1.241 6.1148,1.862 9.2317,1.862 0.106,0 0.594,-0.053 1.466,-0.159 0.872,-0.105 1.796,-0.237 2.773,-0.396 0.978,-0.158 1.876,-0.33 2.695,-0.515 0.818,-0.185 1.228,-0.383 1.228,-0.594 l -0.476,-2.219 c -2.06,-10.407 -4.015,-20.365 -5.863,-29.874 z m 2.773,-0.317 6.498,31.459 c 3.751,-1.427 6.286,-3.87 7.607,-7.33 1.321,-3.46 1.624,-6.973 0.911,-10.539 -0.713,-3.566 -2.39,-6.723 -5.032,-9.47 -2.641,-2.747 -5.969,-4.12 -9.984,-4.12 z M 27.6553,48.813 c 1.6374,-0.846 3.1564,-2.113 4.5564,-3.804 1.4,-1.69 2.694,-3.5 3.883,-5.428 1.188,-1.928 2.219,-3.896 3.09,-5.904 0.872,-2.007 1.572,-3.829 2.1,-5.467 0.581,-1.743 0.977,-3.698 1.189,-5.864 0.211,-2.166 -0.132,-3.988 -1.03,-5.468 -0.634,-1.32 -1.466,-2.086 -2.496,-2.298 -1.031,-0.211 -2.061,-0.132 -3.091,0.238 -1.03,0.37 -2.007,0.964 -2.932,1.783 -0.924,0.819 -1.598,1.545 -2.02,2.179 -1.163,2.06 -2.18,4.358 -3.0513,6.894 -0.8717,2.536 -1.466,5.164 -1.7829,7.885 -0.317,2.72 -0.3566,5.335 -0.1189,7.845 0.2377,2.509 0.8056,4.979 1.7037,7.409 z m -2.3772,2.456 C 24.38,47.783 23.5876,44.362 22.9008,41.007 22.214,37.653 21.8707,34.206 21.8707,30.666 c 0,-2.588 0.1849,-5.428 0.5547,-8.518 0.3697,-3.09 1.0433,-6.102 2.0206,-9.034 0.9773,-2.932 2.3244,-5.56 4.0413,-7.884 C 30.2047,2.905 32.4887,1.215 35.3417,0.158 35.6057,0.053 35.8697,0 36.1337,0 c 0.37,0 0.806,0.211 1.308,0.634 0.502,0.422 1.03,1.043 1.585,1.862 0.554,0.819 1.043,1.664 1.466,2.536 0.422,0.871 0.739,1.466 0.951,1.783 1.426,2.694 2.469,5.56 3.13,8.597 0.66,3.038 1.043,6.062 1.149,9.073 0.211,4.544 -0.04,9.034 -0.753,13.472 -0.713,4.437 -2.153,8.769 -4.319,12.995 -0.739,1.268 -1.492,2.549 -2.258,3.843 -0.766,1.295 -1.677,2.549 -2.734,3.764 -0.211,0.212 -0.594,0.595 -1.149,1.149 -0.555,0.555 -1.123,1.123 -1.704,1.704 -0.581,0.581 -1.096,1.123 -1.545,1.624 -0.449,0.502 -0.673,0.806 -0.673,0.912 l 3.248,15.848 c 0.021,0.104 1.625,0 1.625,0 3.1,0.039 6.382,0.541 9.232,1.664 2.747,1.268 5.111,3.011 7.092,5.23 1.981,2.219 3.565,4.715 4.754,7.488 1.189,2.774 1.783,5.587 1.783,8.44 0,2.852 -0.423,5.758 -1.268,8.716 -2.166,5.6 -5.626,9.747 -10.38,12.441 -0.529,0.317 -1.282,0.674 -2.259,1.07 -0.977,0.396 -1.36,1.017 -1.149,1.862 1.268,5.756 2.126,9.716 2.576,11.886 0.449,2.17 0.779,4.97 0.99,8.4 0.211,3.28 -0.357,6.23 -1.704,8.87 -1.347,2.65 -3.156,4.8 -5.428,6.46 -2.271,1.67 -4.345,2.64 -6.22,2.94 -1.876,0.29 -3.157,0.43 -3.843,0.43 -2.3776,0 -4.702,-0.45 -6.9736,-1.35 -2.7999,-1.05 -5.1507,-2.66 -7.0525,-4.83 -1.9018,-2.17 -2.8527,-4.81 -2.8527,-7.92 0,-1.96 0.5679,-3.97 1.7037,-6.03 1.1358,-2.06 2.6282,-3.54 4.4771,-4.43 2.0603,-1.06 3.9225,-1.35 5.5866,-0.88 1.664,0.48 3.0375,1.38 4.1205,2.7 1.0829,1.32 1.8359,2.92 2.2589,4.79 0.422,1.88 0.396,3.63 -0.08,5.27 -0.475,1.64 -1.439,3.03 -2.892,4.16 -1.4528,1.14 -3.4735,1.65 -6.062,1.55 1.0565,1.9 2.5357,3.1 4.4375,3.6 1.9018,0.51 3.8565,0.54 5.8635,0.12 2.008,-0.42 3.896,-1.2 5.666,-2.34 1.77,-1.13 3.157,-2.36 4.16,-3.68 0.634,-0.95 1.11,-2.19 1.427,-3.72 0.317,-1.54 0.502,-3.13 0.554,-4.8 0.053,-1.66 0,-2.96 -0.158,-3.88 -0.159,-0.93 -0.423,-2.37 -0.793,-4.32 -1.584,-6.39 -2.588,-10.41 -3.011,-12.05 -0.211,-0.523 -0.779,-0.695 -1.703,-0.51 -0.925,0.185 -1.704,0.357 -2.338,0.51 -4.543,0.59 -8.3468,0.32 -11.4108,-0.787 -4.7545,-1.268 -8.9411,-3.527 -12.5598,-6.776 C 8.3864,116.842 5.4809,112.906 3.2885,108.283 1.0962,103.661 0,100.148 0,97.744 0,95.341 0,93.822 0,93.188 0,88.909 0.7396,84.894 2.2188,81.143 5.0186,75.279 8.3336,69.891 12.1636,64.978 c 3.83,-4.913 8.2015,-9.483 13.1145,-13.709 z" />
</svg>
